HIERARCHY
ROOT pelvis
{
  OFFSET 0 100 0
  CHANNELS 6 Xposition Yposition Zposition Zrotation Xrotation Yrotation
  JOINT pelvis_right_femur
  {
    OFFSET -10.78128 -3.44521 -0.5502486
    CHANNELS 3 Zrotation Xrotation Yrotation
    JOINT right_femur_tibia
    {
      OFFSET -0.8047443 -44.0398 -0.1307829
      CHANNELS 3 Zrotation Xrotation Yrotation
      JOINT right_tibia_foot
      {
        OFFSET 3.006224 -47.83518 -5
        CHANNELS 3 Zrotation Xrotation Yrotation
        End Site
        {
          OFFSET 0 -5 15
        }
      }
    }
  }
  JOINT pelvis_left_femur
  {
    OFFSET 10.78128 -3.44521 -0.5502486
    CHANNELS 3 Zrotation Xrotation Yrotation
    JOINT left_femur_tibia
    {
      OFFSET 0.8047443 -44.0398 -0.1307829
      CHANNELS 3 Zrotation Xrotation Yrotation
      JOINT left_tibia_foot
      {
        OFFSET -4.370144 -48.10324 -4.275266
        CHANNELS 3 Zrotation Xrotation Yrotation
        End Site
        {
          OFFSET 0 -5 15
        }
      }
    }
  }
  JOINT pelvis_spine1
  {
    OFFSET 0 6.468898 -3.129235
    CHANNELS 3 Zrotation Xrotation Yrotation
    JOINT spine1
    {
      OFFSET 0 23.15396 4.99043
      CHANNELS 3 Zrotation Xrotation Yrotation
      JOINT spine2
      {
        OFFSET 0 20.79997 -5.064912
        CHANNELS 3 Zrotation Xrotation Yrotation
        JOINT neck
        {
          OFFSET 0 14.38658 9.616178
          CHANNELS 3 Zrotation Xrotation Yrotation
          End Site
          {
            OFFSET 0 20 0
          }
        }
      }
      JOINT right_manubrium
      {
        OFFSET -5.722621 16.35077 3.967754
        CHANNELS 3 Zrotation Xrotation Yrotation
        JOINT right_clavicle
        {
          OFFSET -13.16364 1.694482 -4.693211
          CHANNELS 3 Zrotation Xrotation Yrotation
          JOINT right_humerus
          {
            OFFSET -28.5034 -0.3100689 -2.792744
            CHANNELS 3 Zrotation Xrotation Yrotation
            JOINT right_radius
            {
              OFFSET -25.15693 0.02248979 -1.271978
              CHANNELS 3 Zrotation Xrotation Yrotation
              End Site
              {
                OFFSET -15 0 0
              }
            }
          }
        }
      }
      JOINT left_manubrium
      {
        OFFSET 5.722621 16.35077 3.967754
        CHANNELS 3 Zrotation Xrotation Yrotation
        JOINT left_clavicle
        {
          OFFSET 13.16364 1.694482 -4.693211
          CHANNELS 3 Zrotation Xrotation Yrotation
          JOINT left_humerus
          {
            OFFSET 29.39168 -1.063119 -2.237045
            CHANNELS 3 Zrotation Xrotation Yrotation
            JOINT left_radius
            {
              OFFSET 24.59957 -0.9528479 0.9047498
              CHANNELS 3 Zrotation Xrotation Yrotation
              End Site
              {
                OFFSET 15 -0 -0
              }
            }
          }
        }
      }
    }
  }
}
MOTION
Frames: 13
Frame Time: 0.0416666666667
0 103.5113 0 2.475416 -1.366423 -0.153475 1.860717 -13.6881 9.738115 -0 36.34675 -0 -3.611121 -17.13567 -1.76512 -9.13218 8.413888 -23.35617 -0 5.155975 -0 16.36409 -13.41498 30.79844 -5.274123 -4.523232 6.183201 2.833978 11.28794 -7.386618 1.198182 21.94738 6.785057 2.831777 -24.51969 9.682739 6.628764 -21.31313 12.2949 85.13591 36.86718 -18.06639 -0 0 16.60858 -8.003662 8.45381 5.192289 5.823958 -19.7501 -1.758648 -91.90227 20.46837 20.65684 0 0 -16.36352 14.51826 13.47174 -3.753195
0.5605216 103.8257 1.46025 1.810057 -0.7213859 -0.3402293 3.030671 -16.14368 9.996424 -0 36.3044 -0 -3.825048 -16.00057 -1.753324 -8.572104 8.833497 -22.81867 -0 5.076661 -0 15.83039 -14.05056 30.36395 -4.728093 -4.239588 5.912015 2.930215 11.14715 -7.480616 1.287107 21.61827 6.783131 2.803519 -24.96661 9.867321 6.566588 -21.19169 12.21654 85.02972 36.59144 -17.96208 -0 0 16.77086 -7.553262 8.39953 4.896144 6.028111 -19.77258 -1.501624 -92.1199 20.11925 20.89149 0 0 -16.02652 14.96826 13.34243 -4.157719
1.037874 104.0122 3.329716 1.429635 0.4102487 -0.3956847 3.559275 -19.48157 8.805738 -0 32.37341 -0 -4.648411 -14.18262 -1.638559 -8.058784 10.01424 -21.82173 -0 4.16411 -0 14.7171 -15.58528 28.67404 -4.49912 -3.990768 5.419032 3.077719 10.74512 -7.837061 1.13465 21.37479 6.971373 3.045394 -25.2744 9.692461 6.451984 -20.60911 12.01932 85.58669 37.29307 -18.95818 -0 0 15.71197 -7.759812 8.558774 5.004332 6.363907 -20.45958 -1.489066 -91.33768 20.62033 19.88762 0 0 -17.86562 14.64743 13.45717 -3.564089
1.454786 104.1428 5.534116 0.9025577 1.265154 -0.3421821 4.398907 -22.2969 8.372724 -0 30.29448 -0 -5.175497 -12.64854 -1.561362 -7.530024 10.79962 -20.98122 -0 4.15067 -0 13.78039 -16.53461 27.47311 -4.079858 -3.727257 5.045892 3.190085 10.49525 -8.053714 1.110193 21.09396 7.048571 3.143421 -25.62226 9.68616 6.336691 -20.22564 11.88122 85.8676 37.43118 -19.43811 -0 0 15.20089 -7.694941 8.634542 4.918314 6.621216 -20.82406 -1.374124 -91.0152 20.60732 19.45031 0 0 -18.59588 14.75749 13.40679 -3.530961
1.801112 104.225 8.110846 0.3485703 2.088344 -0.1838022 5.23372 -25.14088 7.902705 -0 28.0858 -0 -5.751776 -11.06397 -1.543812 -6.968062 11.69559 -20.08658 -0 4.504092 -0 12.48147 -17.53111 26.01246 -3.625712 -3.415739 4.620028 3.289879 10.17271 -8.263866 1.096475 20.85462 7.111429 3.235437 -25.90861 9.656449 6.186252 -19.73404 11.70535 86.21975 37.49736 -19.98681 -0 0 14.5713 -7.637668 8.697784 4.834549 6.84786 -21.16106 -1.284224 -90.68545 20.86064 18.94893 0 0 -19.36358 14.55104 13.44377 -3.118785
2.084336 104.2866 11.07844 -0.2524476 2.839771 0.06252423 6.153671 -27.80947 7.578867 -0 26.10807 -0 -6.297401 -9.48184 -1.51038 -6.404441 12.45811 -19.14044 -0 5.518309 -0 11.13436 -18.26923 24.50683 -3.100069 -3.102642 4.231081 3.378567 9.90447 -8.443925 1.105891 20.6069 7.144767 3.298197 -26.19281 9.644334 6.016132 -19.25921 11.54676 86.55616 37.41469 -20.46141 -0 0 13.9947 -7.577016 8.765516 4.721327 7.044596 -21.45439 -1.197092 -90.41854 20.92033 18.53613 0 0 -19.89712 14.49148 13.4063 -2.891174
2.306863 104.3504 14.47153 -0.8737257 3.505447 0.379865 7.082009 -30.27086 7.272379 -0 24.12129 -0 -6.862135 -7.897944 -1.491278 -5.840282 13.14954 -18.11798 -0 7.285216 -0 9.579617 -18.80205 22.81252 -2.526311 -2.772609 3.852182 3.450832 9.644945 -8.601148 1.126347 20.3877 7.153429 3.344732 -26.42511 9.613558 5.813996 -18.73433 11.38518 86.93711 37.2218 -20.94409 -0 0 13.35679 -7.555646 8.839686 4.609003 7.194999 -21.72109 -1.145153 -90.16208 20.98413 18.12186 0 0 -20.33001 14.36328 13.35918 -2.590417
2.476399 104.4504 18.32275 -1.489271 4.039163 0.7387762 7.983576 -32.33974 6.966838 -0 22.15204 -0 -7.443269 -6.35596 -1.470596 -5.301843 13.66404 -17.00418 -0 10.06075 -0 7.904762 -18.98994 20.96887 -1.913243 -2.443597 3.519338 3.501121 9.435586 -8.726142 1.154262 20.20462 7.130509 3.371975 -26.59118 9.554534 5.576677 -18.18115 11.23696 87.36518 36.90742 -21.41933 -0 0 12.66147 -7.605565 8.928401 4.504628 7.283654 -21.96824 -1.146051 -89.91212 20.94381 17.71782 0 0 -20.61567 14.26429 13.26464 -2.342252
2.601127 104.6319 22.6588 -2.051888 4.36301 1.096493 8.767956 -33.76886 6.592816 -0 20.2145 -0 -8.049088 -4.937767 -1.470146 -4.812337 13.92403 -15.80207 -0 14.10809 -0 6.104477 -18.73437 18.98383 -1.285973 -2.117199 3.251617 3.516629 9.284163 -8.803339 1.186882 20.09664 7.06597 3.377355 -26.63671 9.443616 5.29664 -17.58784 11.10478 87.85679 36.45968 -21.88625 -0 0 11.87641 -7.759957 9.027433 4.42423 7.27851 -22.18419 -1.23087 -89.66714 20.85143 17.31251 0 0 -20.73283 14.1187 13.14145 -2.069536
2.690422 104.9584 27.48656 -2.496154 4.374833 1.392965 9.329264 -34.21027 6.087001 -0 18.39638 -0 -8.683254 -3.763609 -1.505647 -4.403325 13.77578 -14.52639 -0 19.71855 -0 4.266681 -17.89121 16.94859 -0.6805402 -1.802573 3.088585 3.481165 9.222779 -8.809647 1.220809 20.10595 6.946598 3.357856 -26.50332 9.256651 4.969273 -16.96998 11.00236 88.41097 35.86664 -22.31203 -0 0 10.99984 -8.055641 9.128736 4.382999 7.144251 -22.35564 -1.433705 -89.4413 20.69986 16.92243 0 0 -20.61381 13.91287 12.99398 -1.775637
2.750879 105.512 32.77497 -2.740063 3.951033 1.554695 9.550082 -33.24688 5.389478 -0 16.82363 -0 -9.356162 -2.994924 -1.604449 -4.100754 13.02237 -13.21683 -0 27.08638 -0 2.501393 -16.34392 15.01019 -0.1508516 -1.501799 3.070215 3.373889 9.279339 -8.714677 1.25177 20.28851 6.758889 3.314865 -26.11601 8.96441 4.594619 -16.35246 10.94425 89.00903 35.13285 -22.63776 -0 0 10.04715 -8.527049 9.213305 4.401545 6.84388 -22.45999 -1.79032 -89.26514 20.52601 16.57784 0 0 -20.17426 13.59128 12.8483 -1.419189
2.78164 106.3857 38.43127 -2.70386 2.9762 1.508922 9.357414 -30.46895 4.491064 -0 15.63463 -0 -10.09608 -2.806636 -1.785447 -3.913229 11.40923 -11.93507 -0 36.13775 -0 0.9740982 -14.04795 13.39079 0.2337761 -1.21092 3.234612 3.173757 9.483535 -8.486461 1.27165 20.69619 6.495637 3.261584 -25.40719 8.538289 4.182638 -15.7907 10.94966 89.59818 34.30482 -22.76487 -0 0 9.07878 -9.200798 9.252399 4.504943 6.358475 -22.47993 -2.325176 -89.18833 20.35911 16.33727 0 0 -19.31824 13.12249 12.73953 -0.9887896
2.769185 107.6542 44.27988 -2.346527 1.396384 1.210494 8.773065 -25.64383 3.463168 -0 14.90272 -0 -10.96079 -3.336399 -2.046158 -3.808832 8.668531 -10.75761 -0 46.24185 -0 -0.1437019 -11.12914 12.35028 0.3986343 -0.9114033 3.595165 2.866862 9.846115 -8.101121 1.267204 21.35519 6.16526 3.229647 -24.34492 7.958272 3.758584 -15.37392 11.03543 90.07459 33.49927 -22.55098 -0 0 8.218621 -10.0807 9.209357 4.72469 5.712962 -22.41316 -3.029428 -89.27759 20.2306 16.2877 0 0 -17.97415 12.50128 12.71616 -0.4962987
